<svg width="24" height="12" viewBox="0 0 24 12" fill="none" xmlns="http://www.w3.org/2000/svg">
<path d="M7.23389 8.20978H9.42383C9.37988 8.92755 9.18213 9.56476 8.83057 10.1214C8.48389 10.678 7.99805 11.1126 7.37305 11.4251C6.75293 11.7376 6.00586 11.8939 5.13184 11.8939C4.44824 11.8939 3.83545 11.7767 3.29346 11.5423C2.75146 11.303 2.2876 10.9612 1.90186 10.5169C1.521 10.0726 1.23047 9.53546 1.03027 8.90558C0.830078 8.2757 0.72998 7.57013 0.72998 6.78888V6.04913C0.72998 5.26788 0.83252 4.56232 1.0376 3.93243C1.24756 3.29767 1.54541 2.75812 1.93115 2.31378C2.32178 1.86945 2.78809 1.52765 3.33008 1.28839C3.87207 1.04913 4.47754 0.929504 5.14648 0.929504C6.03516 0.929504 6.78467 1.09064 7.39502 1.4129C8.01025 1.73517 8.48633 2.1795 8.82324 2.74591C9.16504 3.31232 9.37012 3.95685 9.43848 4.6795H7.24121C7.2168 4.24982 7.13135 3.88605 6.98486 3.5882C6.83838 3.28546 6.61621 3.05841 6.31836 2.90704C6.02539 2.75079 5.63477 2.67267 5.14648 2.67267C4.78027 2.67267 4.46045 2.74103 4.18701 2.87775C3.91357 3.01447 3.68408 3.22198 3.49854 3.50031C3.31299 3.77863 3.17383 4.13019 3.08105 4.55499C2.99316 4.97491 2.94922 5.46808 2.94922 6.03448V6.78888C2.94922 7.34064 2.99072 7.82648 3.07373 8.2464C3.15674 8.66144 3.28369 9.013 3.45459 9.30109C3.63037 9.58429 3.85498 9.79913 4.12842 9.94562C4.40674 10.0872 4.74121 10.158 5.13184 10.158C5.59082 10.158 5.96924 10.0848 6.26709 9.93829C6.56494 9.79181 6.79199 9.57452 6.94824 9.28644C7.10938 8.99835 7.20459 8.63947 7.23389 8.20978ZM13.2031 1.08331V11.7474H11.0132V1.08331H13.2031ZM23.9404 1.08331V11.7474H21.7432L17.4585 4.59894V11.7474H15.2612V1.08331H17.4585L21.7505 8.23907V1.08331H23.9404Z" fill="#034E5E" fill-opacity="0.7"/>
</svg>
